<?xml version="1.0" encoding="iso-8859-1"?>
<!-- Generator: Adobe Illustrator 19.0.0, SVG Export Plug-In . SVG Version: 6.00 Build 0)  -->
<svg version="1.1" id="Capa_1" xmlns="http://www.w3.org/2000/svg" xmlns:xlink="http://www.w3.org/1999/xlink" x="0px" y="0px"
	 viewBox="0 0 480 480" style="enable-background:new 0 0 480 480;" xml:space="preserve">
<linearGradient id="SVGID_1_" gradientUnits="userSpaceOnUse" x1="-59.44" y1="587.6251" x2="28.485" y2="587.6251" gradientTransform="matrix(8 0 0 -8 455 4941.0005)">
	<stop  offset="0" style="stop-color:#E93E3A"/>
	<stop  offset="0.386" style="stop-color:#ED683C"/>
	<stop  offset="0.686" style="stop-color:#F3903F"/>
	<stop  offset="1" style="stop-color:#FDC70C"/>
</linearGradient>
<path style="fill:url(#SVGID_1_);" d="M40,464v-52.688l79.744-79.736l42.16,49.6c1.519,1.79,3.748,2.823,6.096,2.824
	c0.421,0.001,0.841-0.034,1.256-0.104c2.761-0.438,5.093-2.285,6.152-4.872L215.912,280H360c2.758,0,5.322-1.421,6.784-3.76
	l12.416-19.904l45.48,90.952l-28.64-8.208l-4.408,15.384l46.144,13.224c0.722,0.211,1.471,0.316,2.224,0.312
	c3.564-0.004,6.696-2.366,7.68-5.792l13.232-46.144l-15.376-4.408l-7.568,26.4l-48.8-97.6l46.576-74.528l4.728,26.76l15.744-2.784
	l-8.336-47.272c-0.768-4.349-4.915-7.253-9.264-6.488l-47.272,8.336l2.784,15.76l29.6-5.216l-42.928,68.64l-13.6-27.2
	c-1.351-2.741-4.144-4.473-7.2-4.464H240c-3.251-0.001-6.179,1.966-7.408,4.976L205.176,264H168c-2.122,0-4.156,0.844-5.656,2.344
	L120.696,308L40,213.064V0H24v16H0v16h24v96H0v16h24v96H0v16h24v96H0v16h24v104c0,4.418,3.582,8,8,8h448v-16L40,464z M245.368,208
	h109.688l15.784,31.56L355.56,264H222.456L245.368,208z M171.312,280h27.32L165.6,360.8l-34.488-40.576L171.312,280z
	 M109.344,319.344L40,388.688V237.76L109.344,319.344z"/>
<g>
	
		<linearGradient id="SVGID_2_" gradientUnits="userSpaceOnUse" x1="-59.44" y1="614.625" x2="28.485" y2="614.625" gradientTransform="matrix(8 0 0 -8 455 4941.0005)">
		<stop  offset="0" style="stop-color:#E93E3A"/>
		<stop  offset="0.386" style="stop-color:#ED683C"/>
		<stop  offset="0.686" style="stop-color:#F3903F"/>
		<stop  offset="1" style="stop-color:#FDC70C"/>
	</linearGradient>
	<path style="fill:url(#SVGID_2_);" d="M320,16h16v16h-16V16z"/>
	
		<linearGradient id="SVGID_3_" gradientUnits="userSpaceOnUse" x1="-59.44" y1="614.625" x2="28.485" y2="614.625" gradientTransform="matrix(8 0 0 -8 455 4941.0005)">
		<stop  offset="0" style="stop-color:#E93E3A"/>
		<stop  offset="0.386" style="stop-color:#ED683C"/>
		<stop  offset="0.686" style="stop-color:#F3903F"/>
		<stop  offset="1" style="stop-color:#FDC70C"/>
	</linearGradient>
	<path style="fill:url(#SVGID_3_);" d="M352,16h96v16h-96V16z"/>
	
		<linearGradient id="SVGID_4_" gradientUnits="userSpaceOnUse" x1="-59.44" y1="610.625" x2="28.485" y2="610.625" gradientTransform="matrix(8 0 0 -8 455 4941.0005)">
		<stop  offset="0" style="stop-color:#E93E3A"/>
		<stop  offset="0.386" style="stop-color:#ED683C"/>
		<stop  offset="0.686" style="stop-color:#F3903F"/>
		<stop  offset="1" style="stop-color:#FDC70C"/>
	</linearGradient>
	<path style="fill:url(#SVGID_4_);" d="M320,48h128v16H320V48z"/>
	
		<linearGradient id="SVGID_5_" gradientUnits="userSpaceOnUse" x1="-59.44" y1="606.625" x2="28.485" y2="606.625" gradientTransform="matrix(8 0 0 -8 455 4941.0005)">
		<stop  offset="0" style="stop-color:#E93E3A"/>
		<stop  offset="0.386" style="stop-color:#ED683C"/>
		<stop  offset="0.686" style="stop-color:#F3903F"/>
		<stop  offset="1" style="stop-color:#FDC70C"/>
	</linearGradient>
	<path style="fill:url(#SVGID_5_);" d="M320,80h128v16H320V80z"/>
</g>
<g>
</g>
<g>
</g>
<g>
</g>
<g>
</g>
<g>
</g>
<g>
</g>
<g>
</g>
<g>
</g>
<g>
</g>
<g>
</g>
<g>
</g>
<g>
</g>
<g>
</g>
<g>
</g>
<g>
</g>
</svg>
