<?xml version="1.0" encoding="UTF-8"?><!DOCTYPE svg PUBLIC "-//W3C//DTD SVG 1.1//EN" "http://www.w3.org/Graphics/SVG/1.1/DTD/svg11.dtd"><svg xmlns="http://www.w3.org/2000/svg" version="1.1" width="50" height="50" ><path fill='#00a65a' d="M15.999985,10.399994C19.100024,10.399994 21.600027,12.899994 21.600027,16 21.600027,19.099991 19.100024,21.599991 15.999985,21.599991 12.900006,21.599991 10.400004,19.099991 10.400004,16 10.400004,12.899994 12.900006,10.399994 15.999985,10.399994z M15.999985,2.6999969C8.6999897,2.6999971 2.6999842,8.6999971 2.6999842,16 2.6999842,23.300003 8.6999897,29.300003 15.999985,29.300003 23.30004,29.300003 29.300045,23.300003 29.300045,16 29.300045,8.6999971 23.30004,2.6999971 15.999985,2.6999969z M15.999985,0C24.800042,1.9073195E-07 32,7.1999971 32,16 32,24.800003 24.800042,32 15.999985,32 7.1999887,32 0,24.800003 0,16 0,7.1999971 7.1999887,1.9073195E-07 15.999985,0z" /></svg>