<svg id="Layer_1" data-name="Layer 1" xmlns="http://www.w3.org/2000/svg" viewBox="0 0 347.29 341.86"><defs><style>.cls-1{fill:#fff;}</style></defs><title>reg</title><path class="cls-1" d="M856.6,386.85a16.45,16.45,0,0,0-3.11-10.14Q835.3,352.29,817,327.94c-2-2.71-4.08-5.4-4.92-8.8-1-3.95-2.38-7.76-3.31-11.73-1-4.18-.83-4.5,3.42-4.53,8.58-.06,17.17.06,25.74-.06,4.54-.06,5.53-1.07,5.6-5.67.1-6.77.09-13.54,0-20.32-.06-5.15-1-6.05-6.23-6.08-11.18-.08-22.36,0-33.54,0-5.42,0-5.65-.23-7.08-5.6-3.37-12.65-7-25.22-10.36-37.88A20.08,20.08,0,0,0,782.5,219c-3.72-4.38-8.39-6-14.08-6q-84.85.12-169.71.05c-1.58,0-3.16,0-4.74.07a14.48,14.48,0,0,0-8.59,3.57c-3.39,2.81-5.08,6.57-6.14,10.67-3.32,12.78-7,25.45-10.42,38.21-1.23,4.69-1.68,5.05-6.47,5.07-11.63,0-23.27-.07-34.89.06-4.17,0-5.24,1.11-5.32,5.24-.15,6.66-.08,13.32,0,20,0,6.08.78,6.82,6.85,6.86,8.47.06,16.94-.05,25.41.06,3.14,0,3.66.71,2.83,3.73-1,3.59-2.21,7.11-3.13,10.72a25.8,25.8,0,0,1-4.51,9.36q-16,21.21-31.89,42.51c-3.52,4.73-8,9-8.3,15.47v93.51c.7,3.43,1.39,6.79,4.56,9.06a15.93,15.93,0,0,0,9.4,3.28c7.9,0,15.81-.06,23.71,0,3.58,0,4.06.59,4.17,4.18.06,1.92,0,3.84.1,5.76.13,2.73,1.56,4.14,4.28,4.18,12.53.14,25.07.18,37.6,0,3.06-.05,4.11-1.32,4.34-4.46.16-2.15,0-4.3.13-6.44.07-1.29.29-2.65,1.78-2.92a19.5,19.5,0,0,1,8.4.07c2.2.56,2.23,2.95,3,4.63,2.42,5.37,6.2,9.06,12.29,9.13,19.76.23,39.52.14,59.28,0,4.16,0,5.21-1.09,5.28-5.26a32.37,32.37,0,0,1,3.05-13.42c1.14-2.44,2.43-4.85,3.34-7.4,1.16-3.2-.07-5-3.48-5.25-1.35-.11-2.71-.08-4.06-.08H648.57c-7.89,0-8-.07-7.59-7.93.15-3.31.66-3.82,4.08-3.95,1.24,0,2.49,0,3.73,0,18.18,0,36.36,0,54.54,0a12.76,12.76,0,0,0,9.12-3.4,39.86,39.86,0,0,1,26-10.11A41.36,41.36,0,0,1,766,457.51c2,1.64,4.21,2.82,6.4,1,3.73-3.07,7.63-6,10.69-9.83,1.83-2.28,1-4-1.93-4.39-2-.25-4.06-.07-6.1-.15-3.35-.14-3.91-.65-4-4-.08-5.88-.06-11.74,0-17.62,0-3.94.53-4.41,4.61-4.42q15.75-.06,31.51,0c1.23,0,2.65-.24,3.62.55,2.61,2.13,5.25,1.45,8,.47A33.92,33.92,0,0,1,832.42,417c7.25.48,14.25,2.12,20.61,6,2.65,1.61,3.58.92,3.59-2.2C856.64,409.44,856.67,398.14,856.6,386.85ZM596.13,443.32c0,1.91-.48,2.5-2.43,2.47-6.43-.12-12.86-.05-19.28-.05s-12.85-.06-19.28,0c-1.9,0-2.48-.5-2.46-2.43q.15-12,0-24c0-1.87.46-2.53,2.44-2.52q19.27.12,38.56,0c1.93,0,2.47.59,2.45,2.5Q596,431.31,596.13,443.32Zm-9.67-127.84c3.46-12.13,6.85-24,10.23-35.92,3.17-11.15,6.42-22.29,9.44-33.49.6-2.24,1.59-2.73,3.72-2.72q72.63.08,145.28,0c2.73,0,3.81.71,4.57,3.42,6.17,22.24,12.54,44.42,18.85,66.62.18.64.32,1.29.52,2.12Z" transform="translate(-509.36 -213.07)"/><path class="cls-1" d="M856.31,468.64a14.12,14.12,0,0,1-4.08,9.52q-36.27,36.32-72.6,72.57a14,14,0,0,1-19.86.1q-20.88-20.57-41.45-41.44a14.12,14.12,0,0,1-.2-19.63c3.6-3.89,7.35-7.66,11.25-11.25,5.72-5.26,14.18-5,19.87.63,6.12,6,12.2,12.08,18.11,18.29,1.79,1.89,2.68,1.76,4.45,0q24.16-24,48.51-47.79c7.19-7.07,15.07-7.18,22.38-.35,3,2.78,6,5.48,9,8.25A14.37,14.37,0,0,1,856.31,468.64Z" transform="translate(-509.36 -213.07)"/></svg>